<svg xmlns="http://www.w3.org/2000/svg" width="200" height="200" fill="none" viewBox="0 0 200 200" version="1.1" xmlns:xlink="http://www.w3.org/1999/xlink" xmlns:svgjs="http://svgjs.dev/svgjs"><path fill="rgba(255, 243, 243, 1)" fill-rule="evenodd" d="M120 14.286C120 6.396 113.604 0 105.714 0H94.286C86.396 0 80 6.396 80 14.286v2.94c0 12.728-15.388 19.102-24.387 10.102l-2.08-2.08c-5.579-5.578-14.624-5.578-20.203 0l-8.081 8.082c-5.58 5.579-5.58 14.624 0 20.203l2.08 2.08C36.328 64.613 29.953 80 17.226 80h-2.941C6.396 80 0 86.396 0 94.286v11.428C0 113.604 6.396 120 14.286 120h2.94c12.728 0 19.102 15.388 10.102 24.387l-2.08 2.08c-5.578 5.579-5.578 14.624 0 20.203l8.082 8.081c5.579 5.579 14.624 5.579 20.203 0l2.08-2.08c9-8.999 24.387-2.625 24.387 10.102v2.941C80 193.604 86.396 200 94.286 200h11.428c7.89 0 14.286-6.396 14.286-14.286v-2.941c0-12.727 15.388-19.101 24.387-10.102l2.08 2.08c5.579 5.579 14.624 5.579 20.203 0l8.081-8.081c5.579-5.579 5.579-14.624 0-20.203l-2.079-2.08c-9-8.999-2.626-24.387 10.101-24.387h2.941c7.89 0 14.286-6.396 14.286-14.286V94.286C200 86.396 193.604 80 185.714 80h-2.941c-12.727 0-19.101-15.388-10.102-24.387l2.08-2.08c5.579-5.579 5.579-14.624 0-20.203l-8.081-8.081c-5.579-5.58-14.624-5.58-20.203 0l-2.08 2.08C135.388 36.327 120 29.953 120 17.226v-2.941Z" clip-rule="evenodd"></path></svg>